<svg width="226" height="194" viewBox="0 0 226 194" fill="none" xmlns="http://www.w3.org/2000/svg">
<path fill-rule="evenodd" clip-rule="evenodd" d="M162.733 10.7166C154.453 2.64833 142.935 -1.18207 131.475 0.320725C120.316 1.89205 110.402 8.26972 104.343 17.776C100.883 23.1063 98.7755 29.2008 98.203 35.5306L99.7353 33.9951C85.5536 32.7682 71.2861 35 58.1555 40.4992C47.1287 45.7725 39.3391 56.0646 37.2555 68.1137C36.169 74.5087 37.5248 81.0787 41.0541 86.5201L42.0743 84.0141C24.7612 88.4101 10.3823 100.439 2.99144 116.708C-0.318904 124.962 -0.89887 134.059 1.33661 142.667C3.51847 150.574 8.57787 157.38 15.5202 161.744C22.9199 166.623 32.1115 167.937 40.5806 165.327L38.2328 163.994C43.3007 178.996 56.2613 189.951 71.8907 192.444C89.5212 195.944 107.814 193.501 123.909 185.496C133.534 180.967 142.275 174.758 149.724 167.162L148.329 167.741C158.121 168.346 167.94 167.135 177.291 164.168C185.94 161.586 194.146 157.705 201.63 152.657C208.558 148.091 214.363 142.014 218.609 134.883C222.464 128.166 224.159 120.424 223.462 112.71C222.9 104.167 218.701 96.2762 211.931 91.0397V94.55C221.451 87.2837 226.704 75.7322 225.924 63.7776C225.01 54.5838 220.462 46.1366 213.292 40.315C206.121 34.4933 196.923 31.7799 187.743 32.7783L189.177 36.2452C195.641 30.0456 197.407 20.399 193.557 12.31C189.515 4.44369 180.642 0.337381 172.033 2.34872C167.289 3.2873 163.059 5.94565 160.153 9.81367C159.625 10.7337 159.933 11.9076 160.844 12.4501C161.765 12.9601 162.925 12.6562 163.477 11.7596C168.002 6.45265 175.331 4.49125 181.899 6.82962C188.531 9.41829 192.485 16.2576 191.423 23.2998C191.035 27.1787 189.21 30.7718 186.307 33.3722C185.746 33.9594 185.584 34.823 185.895 35.5738C186.206 36.3246 186.93 36.8209 187.742 36.8391C198.387 35.6297 208.918 39.9083 215.706 48.2007C222.178 56.4519 223.831 67.5026 220.057 77.2879C218.123 82.7907 214.577 87.5829 209.881 91.0397C209.345 91.3636 208.986 91.9147 208.906 92.5363C208.826 93.1579 209.034 93.7821 209.471 94.2314C220.708 104.224 222.967 120.929 214.788 133.55C210.488 140.483 204.63 146.316 197.681 150.585C190.041 155.453 181.692 159.104 172.933 161.406C168.198 162.701 163.35 163.53 158.455 163.883C156.081 164.038 153.698 164.023 151.321 163.946C150.158 163.761 148.975 163.732 147.803 163.859C146.776 164.403 145.885 165.172 145.197 166.109C139.031 172.084 132.003 177.099 124.349 180.986C109.782 188.753 93.1554 191.774 76.7896 189.629C62.7201 188.327 50.2284 180.085 43.4902 167.659C42.8324 166.146 42.3046 164.579 41.9126 162.976C41.6241 161.965 40.5793 161.372 39.5643 161.643C25.3351 165.634 10.4459 157.926 5.48262 143.999C2.85522 136.258 2.86371 127.863 5.50675 120.127C8.12577 112.408 12.7889 105.544 18.9993 100.267C25.9986 94.3154 34.1687 89.9002 42.9811 87.3072C43.4886 87.1604 43.9008 86.789 44.0998 86.2993C44.2987 85.8097 44.2624 85.2558 44.0013 84.7963C38.5755 75.4205 39.3723 63.6896 46.0161 55.1345C53.5984 45.3865 64.8993 39.2426 77.1993 38.1814C84.6655 37.159 92.206 36.7842 99.7367 37.0612C100.575 37.0439 101.25 36.3691 101.269 35.5306C102.316 25.2047 107.689 15.8067 116.054 9.66881C124.576 3.59819 135.309 1.51994 145.479 3.97112C151.391 5.30406 156.905 8.01204 161.575 11.8755C161.899 12.1642 162.393 12.1496 162.7 11.8423C163.007 11.535 163.021 11.0415 162.733 10.7166H162.733Z" fill="#E7C4B2"/>
</svg>
